<svg version="1.1" viewBox="0.0 0.0 1417.8871391076116 638.6325459317585" fill="none" stroke="none" stroke-linecap="square" stroke-miterlimit="10" xmlns:xlink="http://www.w3.org/1999/xlink" xmlns="http://www.w3.org/2000/svg"><clipPath id="p.0"><path d="m0 0l1417.8871 0l0 638.63257l-1417.8871 0l0 -638.63257z" clip-rule="nonzero"/></clipPath><g clip-path="url(#p.0)"><path fill="#000000" fill-opacity="0.0" d="m0 0l1417.8871 0l0 638.63257l-1417.8871 0z" fill-rule="evenodd"/><path fill="#000000" d="m325.33072 199.62993l0 0c0 -44.435013 56.665924 -80.4567 126.566925 -80.4567l0 0c69.901 0 126.566895 36.02169 126.566895 80.4567l0 0c0 44.434998 -56.665894 80.45668 -126.566895 80.45668l0 0c-69.901 0 -126.566925 -36.021683 -126.566925 -80.45668z" fill-rule="evenodd"/><path fill="#000000" d="m644.6627 540.8659l0 0c-16.664185 -25.839966 50.01361 -98.496735 148.92914 -162.28345l0 0c98.91553 -63.786713 192.61139 -94.548615 209.27557 -68.70865l0 0c16.664246 25.839966 -50.01361 98.496735 -148.92914 162.28348l0 0c-98.91547 63.786682 -192.61139 94.548645 -209.27557 68.70862z" fill-rule="evenodd"/><path stroke="#ffffff" stroke-width="1.0" stroke-linejoin="round" stroke-linecap="butt" d="m644.6627 540.8659l0 0c-16.664185 -25.839966 50.01361 -98.496735 148.92914 -162.28345l0 0c98.91553 -63.786713 192.61139 -94.548615 209.27557 -68.70865l0 0c16.664246 25.839966 -50.01361 98.496735 -148.92914 162.28348l0 0c-98.91547 63.786682 -192.61139 94.548645 -209.27557 68.70862z" fill-rule="evenodd"/><path fill="#000000" d="m486.111 190.38106l296.25198 247.81102l-54.141785 64.724396l-296.25195 -247.811z" fill-rule="evenodd"/><path stroke="#000000" stroke-width="1.0" stroke-linejoin="round" stroke-linecap="butt" d="m486.111 190.38106l296.25198 247.81102l-54.141785 64.724396l-296.25195 -247.811z" fill-rule="evenodd"/><path fill="#000000" d="m758.52496 154.59055l0 0c0 -49.827385 41.47882 -90.22047 92.64563 -90.22047l0 0c24.571167 0 48.135986 9.505341 65.510376 26.424965c17.37445 16.919617 27.135315 39.867554 27.135315 63.7955l0 0c0 49.827393 -41.47888 90.220474 -92.64569 90.220474l0 0c-51.16681 0 -92.64563 -40.39308 -92.64563 -90.220474z" fill-rule="evenodd"/><path stroke="#ffffff" stroke-width="1.0" stroke-linejoin="round" stroke-linecap="butt" d="m758.52496 154.59055l0 0c0 -49.827385 41.47882 -90.22047 92.64563 -90.22047l0 0c24.571167 0 48.135986 9.505341 65.510376 26.424965c17.37445 16.919617 27.135315 39.867554 27.135315 63.7955l0 0c0 49.827393 -41.47888 90.220474 -92.64569 90.220474l0 0c-51.16681 0 -92.64563 -40.39308 -92.64563 -90.220474z" fill-rule="evenodd"/><path fill="#000000" d="m431.9685 487.9265l0 0c0 -21.169464 18.811096 -38.33072 42.015747 -38.33072l0 0c23.20465 0 42.015747 17.161255 42.015747 38.33072l0 0c0 21.169464 -18.811096 38.33069 -42.015747 38.33069l0 0c-23.20465 0 -42.015747 -17.161224 -42.015747 -38.33069z" fill-rule="evenodd"/><path stroke="#ffffff" stroke-width="1.0" stroke-linejoin="round" stroke-linecap="butt" d="m431.9685 487.9265l0 0c0 -21.169464 18.811096 -38.33072 42.015747 -38.33072l0 0c23.20465 0 42.015747 17.161255 42.015747 38.33072l0 0c0 21.169464 -18.811096 38.33069 -42.015747 38.33069l0 0c-23.20465 0 -42.015747 -17.161224 -42.015747 -38.33069z" fill-rule="evenodd"/></g></svg>